<mxfile host="app.diagrams.net" agent="Mozilla/5.0 (Windows NT 10.0; Win64; x64) AppleWebKit/537.36 (KHTML, like Gecko) Chrome/134.0.0.0 Safari/537.36" version="26.1.3">
  <diagram name="Страница — 1" id="pOF_18oeRZEmL7VJ6E2s">
    <mxGraphModel dx="911" dy="1123" grid="1" gridSize="10" guides="1" tooltips="1" connect="1" arrows="1" fold="1" page="1" pageScale="1" pageWidth="827" pageHeight="1169" math="0" shadow="0">
      <root>
        <mxCell id="0" />
        <mxCell id="1" parent="0" />
        <mxCell id="nhWssT9SL3rCpwEpZhzF-1" value="&lt;u&gt;root: CompFolder&lt;/u&gt;" style="swimlane;fontStyle=0;childLayout=stackLayout;horizontal=1;startSize=26;fillColor=none;horizontalStack=0;resizeParent=1;resizeParentMax=0;resizeLast=0;collapsible=1;marginBottom=0;whiteSpace=wrap;html=1;" vertex="1" parent="1">
          <mxGeometry x="530" y="290" width="230" height="90" as="geometry" />
        </mxCell>
        <mxCell id="nhWssT9SL3rCpwEpZhzF-2" value="Name = &quot;ООП&quot;" style="text;strokeColor=none;fillColor=none;align=left;verticalAlign=top;spacingLeft=4;spacingRight=4;overflow=hidden;rotatable=0;points=[[0,0.5],[1,0.5]];portConstraint=eastwest;whiteSpace=wrap;html=1;" vertex="1" parent="nhWssT9SL3rCpwEpZhzF-1">
          <mxGeometry y="26" width="230" height="26" as="geometry" />
        </mxCell>
        <mxCell id="nhWssT9SL3rCpwEpZhzF-3" value="Path = &quot;C:\\Users\\danil\\Desktop\\ТГУ\\3 сем\\ООП&quot;" style="text;strokeColor=none;fillColor=none;align=left;verticalAlign=top;spacingLeft=4;spacingRight=4;overflow=hidden;rotatable=0;points=[[0,0.5],[1,0.5]];portConstraint=eastwest;whiteSpace=wrap;html=1;" vertex="1" parent="nhWssT9SL3rCpwEpZhzF-1">
          <mxGeometry y="52" width="230" height="38" as="geometry" />
        </mxCell>
        <mxCell id="nhWssT9SL3rCpwEpZhzF-5" value="&lt;u&gt;f1: CompFolder&lt;/u&gt;" style="swimlane;fontStyle=0;childLayout=stackLayout;horizontal=1;startSize=26;fillColor=none;horizontalStack=0;resizeParent=1;resizeParentMax=0;resizeLast=0;collapsible=1;marginBottom=0;whiteSpace=wrap;html=1;" vertex="1" parent="1">
          <mxGeometry x="260" y="450" width="230" height="90" as="geometry" />
        </mxCell>
        <mxCell id="nhWssT9SL3rCpwEpZhzF-6" value="Name = &quot;1 к&quot;" style="text;strokeColor=none;fillColor=none;align=left;verticalAlign=top;spacingLeft=4;spacingRight=4;overflow=hidden;rotatable=0;points=[[0,0.5],[1,0.5]];portConstraint=eastwest;whiteSpace=wrap;html=1;" vertex="1" parent="nhWssT9SL3rCpwEpZhzF-5">
          <mxGeometry y="26" width="230" height="26" as="geometry" />
        </mxCell>
        <mxCell id="nhWssT9SL3rCpwEpZhzF-7" value="Path = &quot;C:\\Users\\danil\\Desktop\\ТГУ\\3 сем\\ООП\\1 к&quot;" style="text;strokeColor=none;fillColor=none;align=left;verticalAlign=top;spacingLeft=4;spacingRight=4;overflow=hidden;rotatable=0;points=[[0,0.5],[1,0.5]];portConstraint=eastwest;whiteSpace=wrap;html=1;" vertex="1" parent="nhWssT9SL3rCpwEpZhzF-5">
          <mxGeometry y="52" width="230" height="38" as="geometry" />
        </mxCell>
        <mxCell id="nhWssT9SL3rCpwEpZhzF-29" style="edgeStyle=orthogonalEdgeStyle;rounded=0;orthogonalLoop=1;jettySize=auto;html=1;exitX=0.5;exitY=0;exitDx=0;exitDy=0;endArrow=none;startFill=0;" edge="1" parent="1">
          <mxGeometry relative="1" as="geometry">
            <mxPoint x="639.8648648648648" y="410" as="targetPoint" />
            <mxPoint x="640" y="450" as="sourcePoint" />
            <Array as="points">
              <mxPoint x="640" y="430" />
              <mxPoint x="640" y="430" />
            </Array>
          </mxGeometry>
        </mxCell>
        <mxCell id="nhWssT9SL3rCpwEpZhzF-8" value="&lt;u&gt;f2: CompFolder&lt;/u&gt;" style="swimlane;fontStyle=0;childLayout=stackLayout;horizontal=1;startSize=26;fillColor=none;horizontalStack=0;resizeParent=1;resizeParentMax=0;resizeLast=0;collapsible=1;marginBottom=0;whiteSpace=wrap;html=1;" vertex="1" parent="1">
          <mxGeometry x="530" y="450" width="230" height="90" as="geometry" />
        </mxCell>
        <mxCell id="nhWssT9SL3rCpwEpZhzF-9" value="Name = &quot;2 к&quot;" style="text;strokeColor=none;fillColor=none;align=left;verticalAlign=top;spacingLeft=4;spacingRight=4;overflow=hidden;rotatable=0;points=[[0,0.5],[1,0.5]];portConstraint=eastwest;whiteSpace=wrap;html=1;" vertex="1" parent="nhWssT9SL3rCpwEpZhzF-8">
          <mxGeometry y="26" width="230" height="26" as="geometry" />
        </mxCell>
        <mxCell id="nhWssT9SL3rCpwEpZhzF-10" value="Path = &quot;C:\\Users\\danil\\Desktop\\ТГУ\\3 сем\\ООП\\2 к&quot;" style="text;strokeColor=none;fillColor=none;align=left;verticalAlign=top;spacingLeft=4;spacingRight=4;overflow=hidden;rotatable=0;points=[[0,0.5],[1,0.5]];portConstraint=eastwest;whiteSpace=wrap;html=1;" vertex="1" parent="nhWssT9SL3rCpwEpZhzF-8">
          <mxGeometry y="52" width="230" height="38" as="geometry" />
        </mxCell>
        <mxCell id="nhWssT9SL3rCpwEpZhzF-33" style="edgeStyle=orthogonalEdgeStyle;rounded=0;orthogonalLoop=1;jettySize=auto;html=1;exitX=0.5;exitY=0;exitDx=0;exitDy=0;endArrow=none;startFill=0;" edge="1" parent="1" source="nhWssT9SL3rCpwEpZhzF-11">
          <mxGeometry relative="1" as="geometry">
            <mxPoint x="380" y="570" as="targetPoint" />
            <Array as="points">
              <mxPoint x="135" y="570" />
            </Array>
          </mxGeometry>
        </mxCell>
        <mxCell id="nhWssT9SL3rCpwEpZhzF-11" value="&lt;u&gt;f11: CompFile&lt;/u&gt;" style="swimlane;fontStyle=0;childLayout=stackLayout;horizontal=1;startSize=26;fillColor=none;horizontalStack=0;resizeParent=1;resizeParentMax=0;resizeLast=0;collapsible=1;marginBottom=0;whiteSpace=wrap;html=1;" vertex="1" parent="1">
          <mxGeometry x="20" y="601" width="230" height="120" as="geometry" />
        </mxCell>
        <mxCell id="nhWssT9SL3rCpwEpZhzF-12" value="Name = &quot;Лекция 1.ppt&quot;" style="text;strokeColor=none;fillColor=none;align=left;verticalAlign=top;spacingLeft=4;spacingRight=4;overflow=hidden;rotatable=0;points=[[0,0.5],[1,0.5]];portConstraint=eastwest;whiteSpace=wrap;html=1;" vertex="1" parent="nhWssT9SL3rCpwEpZhzF-11">
          <mxGeometry y="26" width="230" height="24" as="geometry" />
        </mxCell>
        <mxCell id="nhWssT9SL3rCpwEpZhzF-13" value="Path = &quot;C:\\Users\\danil\\Desktop\\ТГУ\\3 сем\\ООП\\1 к\\Лекция 1.ppt&quot;" style="text;strokeColor=none;fillColor=none;align=left;verticalAlign=top;spacingLeft=4;spacingRight=4;overflow=hidden;rotatable=0;points=[[0,0.5],[1,0.5]];portConstraint=eastwest;whiteSpace=wrap;html=1;" vertex="1" parent="nhWssT9SL3rCpwEpZhzF-11">
          <mxGeometry y="50" width="230" height="38" as="geometry" />
        </mxCell>
        <mxCell id="nhWssT9SL3rCpwEpZhzF-18" value="Size =&amp;nbsp;593920" style="text;strokeColor=none;fillColor=none;align=left;verticalAlign=top;spacingLeft=4;spacingRight=4;overflow=hidden;rotatable=0;points=[[0,0.5],[1,0.5]];portConstraint=eastwest;whiteSpace=wrap;html=1;" vertex="1" parent="nhWssT9SL3rCpwEpZhzF-11">
          <mxGeometry y="88" width="230" height="32" as="geometry" />
        </mxCell>
        <mxCell id="nhWssT9SL3rCpwEpZhzF-14" value="&lt;u&gt;f12: CompFile&lt;/u&gt;" style="swimlane;fontStyle=0;childLayout=stackLayout;horizontal=1;startSize=26;fillColor=none;horizontalStack=0;resizeParent=1;resizeParentMax=0;resizeLast=0;collapsible=1;marginBottom=0;whiteSpace=wrap;html=1;" vertex="1" parent="1">
          <mxGeometry x="260" y="601" width="230" height="120" as="geometry" />
        </mxCell>
        <mxCell id="nhWssT9SL3rCpwEpZhzF-15" value="Name = &quot;Лекция 2.ppt&quot;" style="text;strokeColor=none;fillColor=none;align=left;verticalAlign=top;spacingLeft=4;spacingRight=4;overflow=hidden;rotatable=0;points=[[0,0.5],[1,0.5]];portConstraint=eastwest;whiteSpace=wrap;html=1;" vertex="1" parent="nhWssT9SL3rCpwEpZhzF-14">
          <mxGeometry y="26" width="230" height="24" as="geometry" />
        </mxCell>
        <mxCell id="nhWssT9SL3rCpwEpZhzF-16" value="Path = &quot;C:\\Users\\danil\\Desktop\\ТГУ\\3 сем\\ООП\\1 к\\Лекция 2.ppt&quot;" style="text;strokeColor=none;fillColor=none;align=left;verticalAlign=top;spacingLeft=4;spacingRight=4;overflow=hidden;rotatable=0;points=[[0,0.5],[1,0.5]];portConstraint=eastwest;whiteSpace=wrap;html=1;" vertex="1" parent="nhWssT9SL3rCpwEpZhzF-14">
          <mxGeometry y="50" width="230" height="38" as="geometry" />
        </mxCell>
        <mxCell id="nhWssT9SL3rCpwEpZhzF-19" value="Size =&amp;nbsp;1039360" style="text;strokeColor=none;fillColor=none;align=left;verticalAlign=top;spacingLeft=4;spacingRight=4;overflow=hidden;rotatable=0;points=[[0,0.5],[1,0.5]];portConstraint=eastwest;whiteSpace=wrap;html=1;" vertex="1" parent="nhWssT9SL3rCpwEpZhzF-14">
          <mxGeometry y="88" width="230" height="32" as="geometry" />
        </mxCell>
        <mxCell id="nhWssT9SL3rCpwEpZhzF-30" style="edgeStyle=orthogonalEdgeStyle;rounded=0;orthogonalLoop=1;jettySize=auto;html=1;exitX=0.5;exitY=0;exitDx=0;exitDy=0;endArrow=none;startFill=0;" edge="1" parent="1">
          <mxGeometry relative="1" as="geometry">
            <mxPoint x="640" y="420" as="targetPoint" />
            <mxPoint x="900" y="449.9999999999999" as="sourcePoint" />
            <Array as="points">
              <mxPoint x="900" y="420" />
            </Array>
          </mxGeometry>
        </mxCell>
        <mxCell id="nhWssT9SL3rCpwEpZhzF-20" value="&lt;u&gt;f2: CompFile&lt;/u&gt;" style="swimlane;fontStyle=0;childLayout=stackLayout;horizontal=1;startSize=26;fillColor=none;horizontalStack=0;resizeParent=1;resizeParentMax=0;resizeLast=0;collapsible=1;marginBottom=0;whiteSpace=wrap;html=1;" vertex="1" parent="1">
          <mxGeometry x="790" y="450" width="230" height="120" as="geometry" />
        </mxCell>
        <mxCell id="nhWssT9SL3rCpwEpZhzF-21" value="Name = &quot;Вопросы к колок.docx&quot;" style="text;strokeColor=none;fillColor=none;align=left;verticalAlign=top;spacingLeft=4;spacingRight=4;overflow=hidden;rotatable=0;points=[[0,0.5],[1,0.5]];portConstraint=eastwest;whiteSpace=wrap;html=1;" vertex="1" parent="nhWssT9SL3rCpwEpZhzF-20">
          <mxGeometry y="26" width="230" height="26" as="geometry" />
        </mxCell>
        <mxCell id="nhWssT9SL3rCpwEpZhzF-22" value="Path = &quot;C:\\Users\\danil\\Desktop\\ТГУ\\3 сем\\ООП\\Вопросы к колок.docx&quot;" style="text;strokeColor=none;fillColor=none;align=left;verticalAlign=top;spacingLeft=4;spacingRight=4;overflow=hidden;rotatable=0;points=[[0,0.5],[1,0.5]];portConstraint=eastwest;whiteSpace=wrap;html=1;" vertex="1" parent="nhWssT9SL3rCpwEpZhzF-20">
          <mxGeometry y="52" width="230" height="38" as="geometry" />
        </mxCell>
        <mxCell id="nhWssT9SL3rCpwEpZhzF-27" value="Size =&amp;nbsp;62976" style="text;strokeColor=none;fillColor=none;align=left;verticalAlign=top;spacingLeft=4;spacingRight=4;overflow=hidden;rotatable=0;points=[[0,0.5],[1,0.5]];portConstraint=eastwest;whiteSpace=wrap;html=1;" vertex="1" parent="nhWssT9SL3rCpwEpZhzF-20">
          <mxGeometry y="90" width="230" height="30" as="geometry" />
        </mxCell>
        <mxCell id="nhWssT9SL3rCpwEpZhzF-23" value="&lt;u&gt;f21: CompFile&lt;/u&gt;" style="swimlane;fontStyle=0;childLayout=stackLayout;horizontal=1;startSize=26;fillColor=none;horizontalStack=0;resizeParent=1;resizeParentMax=0;resizeLast=0;collapsible=1;marginBottom=0;whiteSpace=wrap;html=1;" vertex="1" parent="1">
          <mxGeometry x="530" y="601" width="230" height="120" as="geometry" />
        </mxCell>
        <mxCell id="nhWssT9SL3rCpwEpZhzF-24" value="Name = &quot;Лекция 8.ppt&quot;" style="text;strokeColor=none;fillColor=none;align=left;verticalAlign=top;spacingLeft=4;spacingRight=4;overflow=hidden;rotatable=0;points=[[0,0.5],[1,0.5]];portConstraint=eastwest;whiteSpace=wrap;html=1;" vertex="1" parent="nhWssT9SL3rCpwEpZhzF-23">
          <mxGeometry y="26" width="230" height="24" as="geometry" />
        </mxCell>
        <mxCell id="nhWssT9SL3rCpwEpZhzF-25" value="Path = &quot;C:\\Users\\danil\\Desktop\\ТГУ\\3 сем\\ООП\\1 к\\Лекция 8.ppt&quot;" style="text;strokeColor=none;fillColor=none;align=left;verticalAlign=top;spacingLeft=4;spacingRight=4;overflow=hidden;rotatable=0;points=[[0,0.5],[1,0.5]];portConstraint=eastwest;whiteSpace=wrap;html=1;" vertex="1" parent="nhWssT9SL3rCpwEpZhzF-23">
          <mxGeometry y="50" width="230" height="38" as="geometry" />
        </mxCell>
        <mxCell id="nhWssT9SL3rCpwEpZhzF-26" value="Size =&amp;nbsp;459264" style="text;strokeColor=none;fillColor=none;align=left;verticalAlign=top;spacingLeft=4;spacingRight=4;overflow=hidden;rotatable=0;points=[[0,0.5],[1,0.5]];portConstraint=eastwest;whiteSpace=wrap;html=1;" vertex="1" parent="nhWssT9SL3rCpwEpZhzF-23">
          <mxGeometry y="88" width="230" height="32" as="geometry" />
        </mxCell>
        <mxCell id="nhWssT9SL3rCpwEpZhzF-28" value="" style="endArrow=diamondThin;endFill=0;endSize=24;html=1;rounded=0;entryX=0.499;entryY=1.014;entryDx=0;entryDy=0;entryPerimeter=0;exitX=0.5;exitY=0;exitDx=0;exitDy=0;edgeStyle=orthogonalEdgeStyle;" edge="1" parent="1">
          <mxGeometry width="160" relative="1" as="geometry">
            <mxPoint x="370" y="450" as="sourcePoint" />
            <mxPoint x="639.77" y="380.53200000000004" as="targetPoint" />
            <Array as="points">
              <mxPoint x="370" y="420" />
              <mxPoint x="640" y="420" />
            </Array>
          </mxGeometry>
        </mxCell>
        <mxCell id="nhWssT9SL3rCpwEpZhzF-31" value="" style="endArrow=diamondThin;endFill=0;endSize=24;html=1;rounded=0;entryX=0.496;entryY=0.995;entryDx=0;entryDy=0;entryPerimeter=0;exitX=0.5;exitY=0;exitDx=0;exitDy=0;" edge="1" parent="1" source="nhWssT9SL3rCpwEpZhzF-23" target="nhWssT9SL3rCpwEpZhzF-10">
          <mxGeometry width="160" relative="1" as="geometry">
            <mxPoint x="570" y="580" as="sourcePoint" />
            <mxPoint x="730" y="580" as="targetPoint" />
          </mxGeometry>
        </mxCell>
        <mxCell id="nhWssT9SL3rCpwEpZhzF-32" value="" style="endArrow=diamondThin;endFill=0;endSize=24;html=1;rounded=0;entryX=0.5;entryY=0.993;entryDx=0;entryDy=0;entryPerimeter=0;exitX=0.52;exitY=-0.005;exitDx=0;exitDy=0;exitPerimeter=0;" edge="1" parent="1" source="nhWssT9SL3rCpwEpZhzF-14">
          <mxGeometry width="160" relative="1" as="geometry">
            <mxPoint x="380" y="590" as="sourcePoint" />
            <mxPoint x="380" y="539.734" as="targetPoint" />
          </mxGeometry>
        </mxCell>
      </root>
    </mxGraphModel>
  </diagram>
</mxfile>
